<svg xmlns="http://www.w3.org/2000/svg" xmlns:xlink="http://www.w3.org/1999/xlink" width="204" zoomAndPan="magnify" viewBox="0 0 153 155.999997" height="208" preserveAspectRatio="xMidYMid meet" version="1.0"><defs><clipPath id="83a28f31d1"><path d="M 0 0 L 115.195312 0 L 115.195312 115.195312 L 0 115.195312 Z M 0 0 " clip-rule="nonzero"/></clipPath><clipPath id="60025e8823"><path d="M 57.597656 0 C 25.789062 0 0 25.789062 0 57.597656 C 0 89.40625 25.789062 115.195312 57.597656 115.195312 C 89.40625 115.195312 115.195312 89.40625 115.195312 57.597656 C 115.195312 25.789062 89.40625 0 57.597656 0 Z M 57.597656 0 " clip-rule="nonzero"/></clipPath><clipPath id="4088502c34"><path d="M 19 42 L 58 42 L 58 79 L 19 79 Z M 19 42 " clip-rule="nonzero"/></clipPath><clipPath id="0c42fafb47"><path d="M 27.902344 42.113281 L 57.785156 52.605469 L 46.0625 85.988281 L 16.179688 75.496094 Z M 27.902344 42.113281 " clip-rule="nonzero"/></clipPath><clipPath id="941df308c0"><path d="M 19.144531 76.535156 L 27.902344 42.113281 L 57.785156 52.605469 L 47.003906 78.152344 Z M 19.144531 76.535156 " clip-rule="nonzero"/></clipPath><clipPath id="595c8fcc59"><path d="M 0 0 L 38.839844 0 L 38.839844 36.238281 L 0 36.238281 Z M 0 0 " clip-rule="nonzero"/></clipPath><clipPath id="f3207ada6e"><path d="M 8.902344 0.113281 L 38.785156 10.605469 L 27.0625 43.988281 L -2.820312 33.496094 Z M 8.902344 0.113281 " clip-rule="nonzero"/></clipPath><clipPath id="0810dc3b38"><path d="M 0.144531 34.535156 L 8.902344 0.113281 L 38.785156 10.605469 L 28.003906 36.152344 Z M 0.144531 34.535156 " clip-rule="nonzero"/></clipPath><clipPath id="8f9c311569"><rect x="0" width="39" y="0" height="37"/></clipPath><clipPath id="994182fe3b"><path d="M 38.324219 14.667969 L 69.339844 14.667969 L 69.339844 47.984375 L 38.324219 47.984375 Z M 38.324219 14.667969 " clip-rule="nonzero"/></clipPath><clipPath id="c97adcf1cf"><path d="M 38.324219 30.957031 C 38.324219 21.714844 44.253906 14.667969 53.496094 14.667969 C 62.738281 14.667969 69.339844 22.160156 69.339844 31.402344 C 69.339844 40.644531 64.746094 47.914062 55.503906 47.914062 C 46.261719 47.914062 38.324219 40.199219 38.324219 30.957031 Z M 38.324219 30.957031 " clip-rule="nonzero"/></clipPath><clipPath id="bbfe095c3c"><path d="M 0.324219 0.667969 L 31.339844 0.667969 L 31.339844 33.984375 L 0.324219 33.984375 Z M 0.324219 0.667969 " clip-rule="nonzero"/></clipPath><clipPath id="e41f8239c2"><path d="M 0.324219 16.957031 C 0.324219 7.714844 6.253906 0.667969 15.496094 0.667969 C 24.738281 0.667969 31.339844 8.160156 31.339844 17.402344 C 31.339844 26.644531 26.746094 33.914062 17.503906 33.914062 C 8.261719 33.914062 0.324219 26.199219 0.324219 16.957031 Z M 0.324219 16.957031 " clip-rule="nonzero"/></clipPath><clipPath id="ecc5a6d0f8"><rect x="0" width="32" y="0" height="34"/></clipPath><clipPath id="00d09c54a9"><path d="M 49 36 L 82 36 L 82 80 L 49 80 Z M 49 36 " clip-rule="nonzero"/></clipPath><clipPath id="4599aa2009"><path d="M 60.535156 31.292969 L 89.511719 38.1875 L 78.121094 86.066406 L 49.144531 79.175781 Z M 60.535156 31.292969 " clip-rule="nonzero"/></clipPath><clipPath id="5975f21bb5"><path d="M 49.164062 79.09375 L 81.355469 36.246094 L 80.082031 77.828125 Z M 49.164062 79.09375 " clip-rule="nonzero"/></clipPath><clipPath id="9653dc458e"><path d="M 0 0.238281 L 32.359375 0.238281 L 32.359375 43.199219 L 0 43.199219 Z M 0 0.238281 " clip-rule="nonzero"/></clipPath><clipPath id="f354d7fcdd"><path d="M 11.535156 -4.707031 L 40.511719 2.1875 L 29.121094 50.066406 L 0.144531 43.175781 Z M 11.535156 -4.707031 " clip-rule="nonzero"/></clipPath><clipPath id="a4c5c97def"><path d="M 0.164062 43.09375 L 32.355469 0.246094 L 31.082031 41.828125 Z M 0.164062 43.09375 " clip-rule="nonzero"/></clipPath><clipPath id="a40e9cb956"><rect x="0" width="33" y="0" height="44"/></clipPath><clipPath id="2744bf9739"><path d="M 106 109 L 151 109 L 151 154 L 106 154 Z M 106 109 " clip-rule="nonzero"/></clipPath><clipPath id="eb531fbbd0"><path d="M 152.804688 146.917969 L 144.046875 155.675781 L 103.84375 115.472656 L 112.601562 106.714844 Z M 152.804688 146.917969 " clip-rule="nonzero"/></clipPath><clipPath id="a50750283f"><path d="M 148.425781 151.296875 C 146.007812 153.714844 142.085938 153.714844 139.667969 151.296875 L 108.257812 119.886719 C 105.835938 117.464844 105.835938 113.546875 108.257812 111.125 C 110.675781 108.707031 114.597656 108.707031 117.015625 111.125 L 148.425781 142.539062 C 150.84375 144.957031 150.84375 148.878906 148.425781 151.296875 Z M 148.425781 151.296875 " clip-rule="nonzero"/></clipPath><clipPath id="367ed63b1f"><path d="M 0 0 L 44.960938 0 L 44.960938 44.839844 L 0 44.839844 Z M 0 0 " clip-rule="nonzero"/></clipPath><clipPath id="92706b3358"><path d="M 46.804688 37.917969 L 38.046875 46.675781 L -2.15625 6.472656 L 6.601562 -2.285156 Z M 46.804688 37.917969 " clip-rule="nonzero"/></clipPath><clipPath id="bf419e3ca5"><path d="M 42.425781 42.296875 C 40.007812 44.714844 36.085938 44.714844 33.667969 42.296875 L 2.257812 10.886719 C -0.164062 8.464844 -0.164062 4.546875 2.257812 2.125 C 4.675781 -0.292969 8.597656 -0.292969 11.015625 2.125 L 42.425781 33.539062 C 44.84375 35.957031 44.84375 39.878906 42.425781 42.296875 Z M 42.425781 42.296875 " clip-rule="nonzero"/></clipPath><clipPath id="74464469db"><rect x="0" width="45" y="0" height="45"/></clipPath></defs><g clip-path="url(#83a28f31d1)"><g clip-path="url(#60025e8823)"><path stroke-linecap="butt" transform="matrix(0.75, 0, 0, 0.75, 0.00000147115, 0.000002)" fill="none" stroke-linejoin="miter" d="M 76.796878 -0.00000266667 C 34.385417 -0.00000266667 -0.00000196154 34.385416 -0.00000196154 76.796877 C -0.00000196154 119.208338 34.385417 153.593757 76.796878 153.593757 C 119.208339 153.593757 153.593757 119.208338 153.593757 76.796877 C 153.593757 34.385416 119.208339 -0.00000266667 76.796878 -0.00000266667 Z M 76.796878 -0.00000266667 " stroke="#000000" stroke-width="8" stroke-opacity="1" stroke-miterlimit="4"/></g></g><g clip-path="url(#4088502c34)"><g clip-path="url(#0c42fafb47)"><g clip-path="url(#941df308c0)"><g transform="matrix(1, 0, 0, 1, 19, 42)"><g clip-path="url(#8f9c311569)"><g clip-path="url(#595c8fcc59)"><g clip-path="url(#f3207ada6e)"><g clip-path="url(#0810dc3b38)"><path fill="#ede14d" d="M 8.902344 0.113281 L 38.785156 10.605469 L 27.0625 43.988281 L -2.820312 33.496094 Z M 8.902344 0.113281 " fill-opacity="1" fill-rule="nonzero"/></g></g></g></g></g></g></g></g><g clip-path="url(#994182fe3b)"><g clip-path="url(#c97adcf1cf)"><g transform="matrix(1, 0, 0, 1, 38, 14)"><g clip-path="url(#ecc5a6d0f8)"><g clip-path="url(#bbfe095c3c)"><g clip-path="url(#e41f8239c2)"><path fill="#df5e36" d="M 0.324219 0.667969 L 31.339844 0.667969 L 31.339844 33.863281 L 0.324219 33.863281 Z M 0.324219 0.667969 " fill-opacity="1" fill-rule="nonzero"/></g></g></g></g></g></g><g clip-path="url(#00d09c54a9)"><g clip-path="url(#4599aa2009)"><g clip-path="url(#5975f21bb5)"><g transform="matrix(1, 0, 0, 1, 49, 36)"><g clip-path="url(#a40e9cb956)"><g clip-path="url(#9653dc458e)"><g clip-path="url(#f354d7fcdd)"><g clip-path="url(#a4c5c97def)"><path fill="#597ad8" d="M 11.535156 -4.707031 L 40.511719 2.1875 L 29.148438 49.953125 L 0.171875 43.0625 Z M 11.535156 -4.707031 " fill-opacity="1" fill-rule="nonzero"/></g></g></g></g></g></g></g></g><g clip-path="url(#2744bf9739)"><g clip-path="url(#eb531fbbd0)"><g clip-path="url(#a50750283f)"><g transform="matrix(1, 0, 0, 1, 106, 109)"><g clip-path="url(#74464469db)"><g clip-path="url(#367ed63b1f)"><g clip-path="url(#92706b3358)"><g clip-path="url(#bf419e3ca5)"><path fill="#000000" d="M 46.804688 37.917969 L 38.046875 46.675781 L -2.121094 6.507812 L 6.636719 -2.25 Z M 46.804688 37.917969 " fill-opacity="1" fill-rule="nonzero"/></g></g></g></g></g></g></g></g></svg>